<?xml version="1.0" standalone="no"?>
<!DOCTYPE svg PUBLIC "-//W3C//DTD SVG 20010904//EN"
 "http://www.w3.org/TR/2001/REC-SVG-20010904/DTD/svg10.dtd">
<svg version="1.0" xmlns="http://www.w3.org/2000/svg"
 width="1160.000000pt" height="1160.000000pt" viewBox="0 0 1160.000000 1160.000000"
 preserveAspectRatio="xMidYMid meet">
<metadata>
Created by potrace 1.11, written by Peter Selinger 2001-2013
</metadata>
<g transform="translate(0.000000,1160.000000) scale(0.100000,-0.100000)"
fill="#000000" stroke="none">
<path d="M5577 11594 c-1 -1 -63 -5 -137 -9 -74 -3 -137 -8 -140 -10 -3 -1
-45 -6 -94 -10 -50 -4 -97 -8 -105 -10 -9 -1 -41 -6 -71 -9 -30 -4 -67 -9 -83
-11 -15 -3 -53 -9 -85 -15 -31 -5 -73 -12 -92 -15 -19 -3 -69 -13 -110 -21
-41 -9 -85 -18 -98 -20 -12 -2 -62 -14 -110 -25 -48 -12 -94 -23 -102 -24 -60
-14 -262 -75 -400 -121 -877 -296 -1657 -788 -2310 -1459 -49 -49 -108 -112
-132 -139 -23 -27 -58 -65 -76 -85 -69 -74 -262 -321 -359 -456 -339 -478
-593 -979 -775 -1530 -54 -161 -111 -357 -124 -425 -3 -14 -9 -38 -14 -55 -11
-35 -64 -297 -80 -400 -13 -75 -13 -76 -25 -175 -5 -36 -9 -67 -10 -70 -1 -3
-5 -41 -9 -85 -4 -44 -9 -91 -11 -104 -24 -151 -24 -858 0 -1026 2 -16 7 -59
10 -95 3 -36 8 -78 10 -95 3 -16 9 -66 15 -111 6 -44 13 -91 15 -105 5 -21 16
-85 31 -174 4 -24 37 -178 59 -275 22 -100 56 -217 121 -423 121 -382 324
-831 525 -1162 10 -16 27 -46 38 -65 50 -91 308 -463 392 -565 9 -11 52 -63
95 -115 43 -52 80 -97 83 -100 3 -3 38 -41 76 -84 119 -135 378 -389 508 -499
27 -23 80 -67 116 -98 150 -128 496 -373 686 -486 466 -278 925 -476 1440
-622 80 -22 305 -77 350 -85 17 -3 41 -8 55 -11 97 -20 248 -46 320 -55 47 -6
95 -13 108 -15 13 -2 53 -7 90 -10 37 -4 78 -8 91 -10 163 -27 850 -26 1086 0
22 3 60 7 85 10 25 3 68 7 95 10 28 4 61 8 75 10 14 2 45 7 70 10 25 3 68 10
95 15 28 5 66 12 85 15 94 15 351 71 390 85 14 5 36 12 50 14 14 3 48 12 75
20 28 8 83 24 122 35 315 91 731 264 1072 448 150 80 467 275 546 335 6 4 66
49 135 99 108 80 265 202 280 219 3 3 21 18 40 34 276 226 634 607 891 951
104 138 329 473 329 489 0 2 17 33 38 67 72 120 182 331 257 494 39 85 154
360 161 385 2 8 33 101 68 206 60 175 145 485 160 578 3 21 8 42 11 46 2 3 7
22 10 41 3 19 10 57 15 84 5 28 12 64 14 80 15 92 26 164 31 198 3 20 7 52 10
70 2 18 7 62 10 98 4 35 8 75 10 89 20 115 26 680 12 935 -5 76 -10 142 -12
145 -1 3 -5 37 -9 75 -4 39 -8 81 -10 95 -3 14 -7 52 -11 85 -3 33 -8 67 -10
75 -4 14 -11 58 -20 125 -3 17 -7 41 -10 55 -8 36 -25 120 -31 155 -6 35 -63
265 -93 378 -23 85 -126 400 -141 432 -5 11 -21 52 -36 90 -14 39 -32 84 -40
100 -7 17 -25 59 -39 95 -34 81 -189 398 -249 507 -386 701 -949 1345 -1600
1833 -694 519 -1502 881 -2336 1045 -14 2 -36 7 -50 10 -106 21 -393 62 -485
70 -44 4 -91 8 -105 10 -87 13 -711 29 -723 19z"/>
</g>
</svg>
